<svg width="151" height="61" viewBox="0 0 151 61" fill="none" xmlns="http://www.w3.org/2000/svg">
<g clip-path="url(#clip0_1_5)">
<path fill-rule="evenodd" clip-rule="evenodd" d="M8.41025 19.2259C8.53028 -6.81313 61.1632 -4.99672 52.6291 22.1791C49.6523 31.6712 33.3404 32.8431 33.3404 32.8431C33.3404 32.8431 41.3823 37.1673 40.4821 48.0541C39.5819 58.9408 22.7658 60.7103 22.7658 60.7103C22.7658 60.7103 28.6712 56.5501 25.8865 49.5775C23.1018 42.6048 13.0914 38.6908 11.363 28.2728C9.63455 17.8666 18.7448 14.2572 18.7448 14.2572C18.7448 14.2572 16.8603 17.8666 20.5452 24.1126C24.2421 30.3587 36.5451 27.9564 38.3456 21.6283C43.975 1.91734 13.3795 4.88218 8.41025 19.2259Z" fill="#F26E22"/>
<path fill-rule="evenodd" clip-rule="evenodd" d="M22.7657 60.7103C22.7657 60.7103 28.6712 56.5501 25.8865 49.5775C23.1018 42.6048 13.0914 38.6908 11.363 28.2728C9.75456 18.5462 17.5925 14.7611 18.6247 14.304L18.6367 14.5033C18.6367 14.5033 11.687 20.0345 17.5925 28.6009C23.4979 37.1673 34.7807 41.1517 33.5444 49.5775C32.3081 58.015 22.7657 60.7103 22.7657 60.7103Z" fill="#FCBA23"/>
<path fill-rule="evenodd" clip-rule="evenodd" d="M8.41025 19.2259C8.44626 9.7923 15.396 4.01495 23.822 1.77667C24.2541 1.68292 24.6862 1.57745 25.1303 1.46027C26.4267 1.17902 27.759 0.968078 29.0913 0.850891C37.8655 0.417297 47.3238 5.81964 45.7754 17.4915C44.3711 28.0618 34.2526 28.3431 30.0155 27.6048C33.8325 27.0306 37.4333 24.8275 38.3456 21.6282C43.975 1.9173 13.3795 4.88214 8.41025 19.2259Z" fill="#DF2027"/>
</g>
<path d="M56.3064 54.0015C53.6515 54.0015 51.6358 53.2947 50.2592 51.8813C48.8826 50.4678 48.1943 48.4336 48.1943 45.7788V43.2161C48.1943 40.5735 48.8826 38.5517 50.2592 37.1505C51.6358 35.737 53.6515 35.0303 56.3064 35.0303C58.9613 35.0303 60.9708 35.737 62.3351 37.1505C63.7117 38.5517 64.4 40.5735 64.4 43.2161V45.7788C64.4 48.4336 63.7117 50.4678 62.3351 51.8813C60.9708 53.2947 58.9613 54.0015 56.3064 54.0015ZM56.3064 51.07C57.769 51.07 58.8814 50.6337 59.6434 49.7611C60.4055 48.8884 60.7865 47.6347 60.7865 46V42.9949C60.7865 41.3724 60.4055 40.1311 59.6434 39.2707C58.8814 38.398 57.769 37.9617 56.3064 37.9617C54.8438 37.9617 53.7314 38.398 52.9694 39.2707C52.2074 40.1311 51.8263 41.3724 51.8263 42.9949V46C51.8263 47.6347 52.2074 48.8884 52.9694 49.7611C53.7314 50.6337 54.8438 51.07 56.3064 51.07Z" fill="white"/>
<path d="M74.1858 53.9461C72.0349 53.9461 70.394 53.2701 69.2632 51.9181C68.1448 50.5661 67.5855 48.5934 67.5855 46V43.1423C67.5855 40.5244 68.1509 38.5332 69.2817 37.1689C70.4247 35.7923 72.1086 35.104 74.3333 35.104C75.4026 35.104 76.3183 35.2761 77.0803 35.6203C77.8546 35.9521 78.4815 36.4253 78.9608 37.0399C79.4525 37.6544 79.8028 38.3796 80.0117 39.2154H81.2101L80.1961 42.5524C80.1592 41.5691 79.9441 40.7456 79.5508 40.0819C79.1575 39.4059 78.6167 38.8958 77.9284 38.5517C77.2401 38.2075 76.435 38.0354 75.5132 38.0354C74.1243 38.0354 73.0612 38.4349 72.3237 39.2338C71.5862 40.0327 71.2175 41.2188 71.2175 42.7921V46.2397C71.2175 47.7761 71.5801 48.9437 72.3053 49.7426C73.0427 50.5415 74.112 50.941 75.5132 50.941C76.3613 50.941 77.1049 50.7812 77.744 50.4616C78.3955 50.1421 78.9363 49.7057 79.3664 49.1527C79.7966 48.5996 80.0916 47.9789 80.2514 47.2906L81.0995 49.8348H80.0486C79.8519 50.5846 79.5201 51.2729 79.053 51.8997C78.5983 52.5265 77.9776 53.0243 77.1909 53.393C76.4043 53.7618 75.4026 53.9461 74.1858 53.9461ZM80.1039 53.5405L80.2514 49.3186L80.1961 48.1755V40.6903L80.2145 39.9897L80.1223 34.8828V29.1306H83.7175V53.5405H80.1039Z" fill="white"/>
<path d="M95.4972 53.9646C92.8178 53.9646 90.8267 53.2578 89.5238 51.8444C88.2333 50.4186 87.588 48.409 87.588 45.8156V43.2161C87.588 40.6104 88.2394 38.6008 89.5422 37.1874C90.8451 35.7739 92.8301 35.0672 95.4972 35.0672C96.2347 35.0672 96.9107 35.1348 97.5253 35.27C98.1521 35.4052 98.7175 35.5834 99.2214 35.8046C99.7253 36.0136 100.156 36.2348 100.512 36.4683L100.825 39.5657C100.235 39.1478 99.5533 38.7975 98.7789 38.5148C98.0046 38.2198 97.1012 38.0723 96.0688 38.0723C94.4218 38.0723 93.1988 38.5209 92.3999 39.4182C91.6133 40.3031 91.22 41.5937 91.22 43.2898V45.7235C91.22 47.3827 91.6133 48.661 92.3999 49.5583C93.1988 50.4555 94.4218 50.9041 96.0688 50.9041C97.1135 50.9041 98.0353 50.7628 98.8342 50.4801C99.6332 50.1851 100.352 49.8287 100.991 49.4108L100.678 52.545C100.113 52.9014 99.3873 53.2271 98.5024 53.5221C97.6297 53.8171 96.628 53.9646 95.4972 53.9646Z" fill="white"/>
<path d="M114.985 53.5405L115.133 49.2633L115.004 48.7102V43.0317L115.022 42.1283C115.022 40.7395 114.666 39.7193 113.953 39.0679C113.252 38.4165 112.122 38.0907 110.561 38.0907C109.295 38.0907 108.121 38.269 107.039 38.6254C105.958 38.9818 104.981 39.3936 104.108 39.8607L104.44 36.8371C104.931 36.5544 105.509 36.2778 106.173 36.0074C106.837 35.737 107.586 35.5158 108.422 35.3437C109.258 35.1716 110.174 35.0856 111.169 35.0856C112.533 35.0856 113.689 35.2515 114.635 35.5834C115.582 35.9029 116.344 36.37 116.921 36.9846C117.499 37.5991 117.917 38.3366 118.175 39.1969C118.445 40.0573 118.581 41.016 118.581 42.073V53.5405H114.985ZM108.883 53.9461C107.101 53.9461 105.737 53.5098 104.79 52.6372C103.844 51.7522 103.37 50.4985 103.37 48.8761V48.323C103.37 46.6023 103.899 45.3301 104.956 44.5067C106.025 43.6709 107.703 43.0932 109.989 42.7736L115.41 41.9993L115.612 44.6173L110.413 45.3547C109.172 45.5268 108.287 45.8279 107.758 46.2581C107.23 46.676 106.966 47.2967 106.966 48.1202V48.3783C106.966 49.2018 107.218 49.8348 107.722 50.2773C108.238 50.7198 109.018 50.941 110.063 50.941C111.022 50.941 111.845 50.7812 112.533 50.4616C113.222 50.1421 113.781 49.718 114.211 49.1895C114.641 48.6487 114.936 48.0526 115.096 47.4012L115.594 49.8164H114.93C114.734 50.5538 114.408 51.236 113.953 51.8628C113.498 52.4897 112.859 52.9936 112.036 53.3746C111.224 53.7556 110.174 53.9461 108.883 53.9461Z" fill="white"/>
<path d="M128.647 53.9646C127.197 53.9646 125.924 53.8171 124.831 53.5221C123.737 53.2148 122.821 52.883 122.084 52.5265L121.752 49.2264C122.661 49.6812 123.663 50.0806 124.757 50.4248C125.851 50.7566 127.08 50.9226 128.444 50.9226C129.759 50.9226 130.73 50.732 131.357 50.351C131.996 49.9577 132.316 49.38 132.316 48.618V48.4705C132.316 47.9789 132.187 47.5733 131.929 47.2537C131.671 46.9218 131.21 46.6268 130.546 46.3687C129.894 46.1106 128.967 45.8464 127.762 45.576C126.25 45.2318 125.058 44.8262 124.185 44.3592C123.313 43.8921 122.686 43.3206 122.305 42.6446C121.936 41.9563 121.752 41.1328 121.752 40.1741V40.0081C121.752 38.3857 122.317 37.1566 123.448 36.3208C124.579 35.4851 126.275 35.0672 128.536 35.0672C129.962 35.0672 131.203 35.2208 132.261 35.5281C133.318 35.8353 134.19 36.1856 134.878 36.579L135.21 39.5841C134.387 39.1416 133.447 38.7729 132.39 38.4779C131.345 38.1706 130.183 38.017 128.905 38.017C128.032 38.017 127.332 38.103 126.803 38.2751C126.275 38.4349 125.894 38.6684 125.66 38.9757C125.427 39.2707 125.31 39.6271 125.31 40.045V40.1741C125.31 40.6288 125.433 41.0283 125.679 41.3724C125.924 41.7043 126.361 42.0054 126.988 42.2758C127.627 42.5339 128.512 42.7859 129.643 43.0317C131.167 43.3513 132.383 43.7262 133.293 44.1564C134.202 44.5865 134.86 45.1396 135.266 45.8156C135.671 46.4794 135.874 47.3397 135.874 48.3968V48.6733C135.874 50.4309 135.272 51.7522 134.067 52.6372C132.863 53.5221 131.056 53.9646 128.647 53.9646Z" fill="white"/>
<path d="M145.844 53.9093C144.406 53.9093 143.25 53.6942 142.378 53.264C141.505 52.8215 140.872 52.1639 140.479 51.2913C140.086 50.4063 139.889 49.3063 139.889 47.9912V36.9661H143.466V47.5671C143.466 48.6733 143.718 49.4845 144.221 50.0007C144.725 50.517 145.573 50.7751 146.766 50.7751C147.479 50.7751 148.161 50.7013 148.812 50.5538C149.464 50.4063 150.066 50.1974 150.619 49.927L150.306 52.9874C149.716 53.2824 149.033 53.5098 148.259 53.6696C147.485 53.8294 146.68 53.9093 145.844 53.9093ZM137.068 38.607V35.7309H150.453L150.14 38.607H137.068ZM139.926 36.0443L139.907 31.0849L143.521 30.6608L143.373 36.0443H139.926Z" fill="white"/>
<defs>
<clipPath id="clip0_1_5">
<rect width="61.455" height="60" fill="white" transform="translate(0.260254 0.710297)"/>
</clipPath>
</defs>
</svg>
